<svg id="Layer_1" data-name="Layer 1" xmlns="http://www.w3.org/2000/svg" viewBox="0 0 512 512"><defs><style>.cls-1{fill:#1e86c8;}.cls-2{font-size:67.39px;fill:#231f20;font-family:Montserrat-Regular, Montserrat;}.cls-3{letter-spacing:0em;}.cls-4{letter-spacing:-0.01em;}</style></defs><title>LOGO DSL</title><path class="cls-1" d="M395.14,204.84,316.73,69.73V25.39h4.39a11.3,11.3,0,0,0,11.3-11.31V11.31A11.3,11.3,0,0,0,321.12,0H204.48a11.31,11.31,0,0,0-11.31,11.31v2.77a11.31,11.31,0,0,0,11.31,11.31h4.23V69.73l-78.32,135-.08.14c-1.57,2.77-15.06,27.72-6.8,47.53C130.86,270,147.88,281,167.94,281h20.93V256H167.94c-4.78,0-16.44-1.3-21.42-13.26-2.56-6.15,1.76-18.94,5.48-25.66L233.64,76.44v-51H291.8V76.44l81.66,140.7c3.25,5.8,8.15,19.19,5.47,25.64-5,12-16.64,13.26-21.42,13.26H336.58V281h20.93c20.05,0,37.08-10.95,44.43-28.59C410.19,232.56,396.7,207.61,395.14,204.84Z"/><text class="cls-2" transform="translate(54.92 494.8)">st<tspan class="cls-3" x="62.26" y="0">r</tspan><tspan class="cls-4" x="88.68" y="0">a</tspan><tspan x="127.83" y="0">tegy lab</tspan></text><path class="cls-1" d="M130.4,325.81v90.34H112.26V408.6q-7.07,8.52-20.45,8.52A34,34,0,0,1,75.07,413a29.67,29.67,0,0,1-11.75-11.81,39.21,39.21,0,0,1,0-35.55,29.67,29.67,0,0,1,11.75-11.81,34.11,34.11,0,0,1,16.74-4.14q12.54,0,19.6,7.92V325.81ZM107,396.61q4.74-4.94,4.75-13.21T107,370.19a17,17,0,0,0-24,0q-4.76,4.94-4.75,13.21t4.75,13.21a17,17,0,0,0,24,0Z"/><path class="cls-1" d="M148.9,338.47a10.32,10.32,0,0,1,0-15.09,12.07,12.07,0,0,1,8.53-3,12.33,12.33,0,0,1,8.52,2.92,9.35,9.35,0,0,1,3.28,7.3,10.33,10.33,0,0,1-3.28,7.85,11.9,11.9,0,0,1-8.52,3.11A12.08,12.08,0,0,1,148.9,338.47Zm-1,12.18h19v65.5h-19Z"/><path class="cls-1" d="M252.14,350.65v54.54q0,18-9.37,26.78t-27.39,8.77a68.61,68.61,0,0,1-18-2.32,39.35,39.35,0,0,1-14.12-6.69l7.54-13.64a31,31,0,0,0,10.47,5.42,41.63,41.63,0,0,0,12.66,2q9.87,0,14.55-4.44t4.69-13.46v-2.8q-7.43,8.16-20.7,8.16A34.72,34.72,0,0,1,196,409a30.09,30.09,0,0,1-11.87-11.14,33.48,33.48,0,0,1,0-33.11A30.16,30.16,0,0,1,196,353.63a34.72,34.72,0,0,1,16.49-4q14.25,0,21.68,9.38v-8.4ZM228.59,393a16.48,16.48,0,0,0,0-23.25,17.52,17.52,0,0,0-12.36-4.44,17.74,17.74,0,0,0-12.42,4.44,16.31,16.31,0,0,0,0,23.25,17.7,17.7,0,0,0,12.42,4.45Q223.77,397.4,228.59,393Z"/><path class="cls-1" d="M270.77,338.47a10.3,10.3,0,0,1,0-15.09,12,12,0,0,1,8.52-3,12.33,12.33,0,0,1,8.52,2.92,9.36,9.36,0,0,1,3.29,7.3,10.33,10.33,0,0,1-3.29,7.85,11.9,11.9,0,0,1-8.52,3.11A12,12,0,0,1,270.77,338.47Zm-1,12.18h19v65.5h-19Z"/><path class="cls-1" d="M348.68,413a19.36,19.36,0,0,1-6.88,3.1,34.77,34.77,0,0,1-8.58,1q-11.69,0-18.08-6t-6.39-17.53v-26.9H298.64V352.11h10.11V336.16h19v15.95h16.31v14.61H327.74v26.66a8.94,8.94,0,0,0,2.13,6.39,7.9,7.9,0,0,0,6,2.25,12.23,12.23,0,0,0,7.67-2.43Z"/><path class="cls-1" d="M409.18,356.92q8.16,7.24,8.16,21.85v37.38H399.57V408q-5.35,9.13-20,9.13a30.94,30.94,0,0,1-13.09-2.56,19.46,19.46,0,0,1-8.46-7.06,18.42,18.42,0,0,1-2.92-10.22q0-9.13,6.88-14.37t21.24-5.24h15.1q0-6.19-3.77-9.55t-11.33-3.35A33.18,33.18,0,0,0,373,366.41a27.17,27.17,0,0,0-8.58,4.45l-6.82-13.27a41.27,41.27,0,0,1,12.84-5.85,58,58,0,0,1,15.4-2.07Q401,349.67,409.18,356.92ZM393,402.08a12.31,12.31,0,0,0,5.35-6.63v-6.7h-13q-11.69,0-11.68,7.67a6.83,6.83,0,0,0,2.86,5.79q2.85,2.13,7.85,2.13A16.51,16.51,0,0,0,393,402.08Z"/><path class="cls-1" d="M434.51,325.81h19v90.34h-19Z"/></svg>